<?xml version="1.0" encoding="UTF-8" standalone="no"?>
<!-- Created with Inkscape (http://www.inkscape.org/) -->

<svg
   width="28.045834mm"
   height="47.889584mm"
   viewBox="0 0 28.045834 47.889584"
   version="1.1"
   id="svg1"
   xmlns="http://www.w3.org/2000/svg"
   xmlns:svg="http://www.w3.org/2000/svg">
  <defs
     id="defs1" />
  <g
     id="layer1"
     transform="translate(0.72200732,-0.31542774)">
    <g
       id="g48"
       transform="matrix(0.26458333,0,0,0.26458333,-7.6011739,-73.238738)">
      <path
         fill="#000000"
         fill-rule="evenodd"
         d="m 95.75,440.75 -1.5,0.5 -1.25,2.25 -1.75,2.75 -1.75,0.75 -5.5,5.5 -0.25,1.25 -3.25,0.25 -0.5,0.5 1,1 -1.5,1.5 -1,-1 -0.5,0.5 v 1 0.5 l -1,-0.5 v -1 -0.5 l -1,0.5 v 1 l -0.5,0.5 -1,-1 h -2 l -2,2 -1,-1 -1,1 -1.5,-0.75 -4,-0.5 -2,-1.375 -2.75,-0.625 -0.5,-1.5 L 56,453.5 54.5,453 50,448.5 l -1,-2 -2.25,-3 -1.75,-4 -2,-4 -1.375,-3.5 -1.25,-2 -0.75,-3 -1.125,-2 -1,-2 -1.125,-2 -0.75,-3 -2.25,-4 -1,-3 -0.75,-5 -1.125,-3 -0.875,-3 -1.375,-2 -0.75,-9 -0.5,-8.5 -1,-1 1,-1 v -1 l -1,-1 1,-1 -1,-1 0.5,-1.5 1,-2 0.5,-1.5 V 369 l 1,0.5 0.5,1.5 1.125,2 0.375,2.5 3,3 0.25,1.25 1.5,0.5 0.625,2.75 0.875,1.75 1.5,0.5 0.625,2.75 2.25,4 0.375,2.5 3,3 0.375,2.5 1.125,2 1.25,2.25 2.5,1.5 1.75,2.75 1.625,2.5 1.125,3.5 1.75,2.5 3,6 1.125,2 1.125,3.5 1.75,2.5 0.5,1.5 3.5,3.5 1,-1 1,1 0.5,-0.5 v -1 l 0.5,-0.5 1,1 0.5,-0.5 0.25,-1.25 1.75,-0.75 1.5,-0.5 3.5,-3.5 0.5,-1.5 1,-2 3,-5 1,-2 1.75,-2.5 1.5,-3.75 2,-1 0.75,-1.75 1.5,-2.5 2.25,-3 1.125,-3.5 0.625,-1.5 3,-3 0.375,-2.5 2.25,-4 1.625,-3.5 1.125,-4.5 1,-3 1.125,-2 1.75,-2.5 1,-3.25 1.75,-0.75 2,-1 1.5,-0.5 0.5,-0.5 -1,-1 0.5,-0.5 1.5,0.625 2.75,0.125 0.5,-1.5 h 2.5 l 0.25,1.25 1,1 -1,1 0.5,0.5 2.75,0.75 1.375,3.25 0.125,6 -2,2.5 -1.125,3.5 -1.625,2.5 -1.5,2.5 -1.125,2 -0.75,3 -1.25,2 -0.75,3 -1.625,2.5 -1.5,2.5 -1.125,2 -1.125,3.5 -1.75,2.5 -1,2 -1.75,2.5 -1.125,3.5 -0.875,1.75 -1.25,0.25 -0.5,0.5 1,1 -1,1 -0.25,1.25 -1.5,0.5 -0.5,2.5 -1.25,0.25 -0.5,0.5 1,1 -1,1 -1,2 -1.75,2.5 -0.5,3.75 M 30,398 v -0.5 -1 L 29,396 v 0.5 1 l 1,0.5 m 68,36 v -1 h -1 v 1 h 1"
         id="path48" />
    </g>
    <g
       id="g81"
       transform="matrix(0.26458333,0,0,0.26458333,-7.6011739,-73.238738)">
      <path
         fill="#000000"
         fill-rule="evenodd"
         d="m 39,324 v -1 h -1 v 1 h 1 m 32,47 -2,-0.375 -1.5,-0.625 -1,-1 -1,1 -2,-2 -1.75,-0.75 -1,-2 -2.25,-1.25 -2,-1 -1.5,-1.5 1,-1 -0.5,-0.5 -1.25,-0.25 -1.5,-2.25 -1.5,-4 -1.75,-2.5 -1.25,-2 -0.5,-3.75 -1.5,-0.5 -1.5,-5.5 -1.25,-0.25 -0.5,-0.5 1,-1 -1,-1 -0.5,-1.5 -1.125,-2 -0.75,-3 -1.125,-2 -1,-2 -1.25,-2 -0.625,-5 -1,-3 -0.625,-1.5 1,-1 -0.5,-0.5 -1.25,-0.25 0.25,-1.75 v -2 l -0.5,-1.5 -1,-1 1,-1 -1,-1 -0.625,-3.5 -0.75,-6 -0.625,-3.5 1,-1 -1,-1 1,-1 -1,-1 v -2 l 1,-1 -1,-1 1.5,-1.5 h 1 l 0.5,0.5 -1,1 0.5,0.5 1.25,0.25 0.75,1.75 1,2 1.5,2.5 1.25,2.25 1.5,0.5 1,3.25 2.5,3 1.125,3.5 1.25,2 0.75,3 0.875,1.75 1.5,0.5 0.625,2.75 0.625,1.5 2.5,2.5 1,-1 0.5,0.5 0.5,1.5 6,12 1.75,2.5 1.25,3.5 0.875,3 1.625,2.5 2,3 3,3.5 2.5,1 0.5,-1 h 1.5 L 80,344.5 V 344 h 0.5 L 81,343.5 V 343 l 3,-2.5 1,-2 1.5,-2.5 1.125,-2 0.375,-2.5 4,-4 v -2 l 3,-3 1,-2 2,-3 1.5,-2.5 2,-4 1.5,-2.5 1.625,-2.5 2.75,-7 1.125,-2 0.5,-1.5 1,-1 -1,-1 1,-1 1.25,-2 1.25,-3.5 0.5,-2.5 3.5,-3.5 2.25,-0.25 0.5,-1.5 2.25,-0.25 1,1 2,-2 2.25,0.25 1.5,3.5 2.5,0.5 0.25,2.25 1,1 -1,1 1,1 -0.375,3.5 -0.625,2.5 -2,2 1,1 -2,2 -0.25,1.25 -1.5,0.5 -0.625,2.75 -1.875,2.5 -1.125,3.5 -1.25,2 -1.375,3.5 -1.75,4 -1.75,2.5 -1.125,2 -0.75,3 -0.875,1.75 -1.5,0.5 -1.5,5.5 -1.5,0.5 -0.25,2.25 -3,3 -0.25,2.25 -1.25,0.25 -0.5,0.5 1,1 -1,1 -0.5,1.5 -1.25,2.25 -1.75,0.75 -0.5,0.5 1,1 -2,4 -3,3 1,1 -0.5,0.5 -1.25,0.25 -0.5,1.5 -1.5,0.5 -0.25,1.25 -0.5,0.5 -1,-1 -0.5,0.5 -0.25,1.25 -1.25,0.25 -0.5,0.5 1,1 -0.5,0.5 -2.5,0.375 -1.5,0.625 -3,3 -1,-1 -1.5,0.625 -2.5,0.375 -1,1 -1,-1 -1,1 H 72 l -0.5,-1 -0.5,0.5 v 0.5"
         id="path81" />
    </g>
  </g>
</svg>
