<?xml version="1.0" encoding="UTF-8" standalone="no"?>
<!-- Created with Inkscape (http://www.inkscape.org/) -->

<svg
   width="84.07135mm"
   height="18.25625mm"
   viewBox="0 0 84.07135 18.25625"
   version="1.1"
   id="svg1"
   xmlns="http://www.w3.org/2000/svg"
   xmlns:svg="http://www.w3.org/2000/svg">
  <defs
     id="defs1" />
  <g
     id="layer1"
     transform="translate(-62.70625,-74.612502)">
    <g
       id="g18"
       transform="matrix(0.26458333,0,0,0.26458333,84.402083,-63.76458)">
      <path
         fill="#000000"
         fill-rule="evenodd"
         d="m -15,527 1.5,-1 3.5,-0.375 2.5,-0.625 2,-2 1,1 1.5,-0.625 3,0.125 2.75,0.75 0.25,1.25 2.5,2.5 h 1 l 0.5,0.5 -1,1 0.5,0.5 h 1 l 0.5,0.5 -1,1 0.25,5.5 0.5,1.75 L 6.5,539 6,539.5 7,540.5 5.5,542 4.25,542.25 4,543.5 3.5,544 2.5,543 2,543.5 v 1 l -0.5,0.5 -1,-1 -1,1 -4.5,0.375 -3,1.25 -4,0.625 -2,1.5 -4,0.5 -1.5,0.75 -1,1 -1,-1 -2,2 -3.5,0.375 -3,1 -1.5,0.625 -1,1 -1,-1 -1,1 h -1 l -1.5,1.5 0.5,0.5 h 3 l 1,-1 1,1 10.5,0.25 1.5,0.75 1,-1 1,1 5.5,-0.375 4,-0.25 2.5,0.625 1,-1 1,1 1,-1 h 2 l 1,1 1,-1 h 1 l 1,1 1,-1 1,1 h 1 l 1,-1 1,1 1,-1 h 16 l 1,1 1,-1 h 2 l 1,1 1,-1 1,1 1,-1 3.5,0.625 5.5,0.375 1,-1 1,1 h 1 l 1,-1 1,1 h 5 l 1,-1 1,1 1,-1 h 1 l 1,1 1,-1 1,1 1,-1 h 1 l 1,1 1,-1 1.5,0.75 5.5,0.25 1,-1 1,1 h 10 l 1,-1 1,1 h 10 l 1,1 1,-1 h 1 l 1,1 1,-1 1,1 h 1 l 1,-1 1,1 h 30 l 1,1 1,-1 h 6 l 1,1 1,-1 1,1 h 13 l 1,1 1,-1 h 1 l 1,1 1,-1 1,1 h 11 l 1,1 0.5,-0.5 v -1 -0.5 l 1,0.5 0.25,1.375 6.75,-0.125 3,-0.375 2,-0.125 5.5,1.125 15.5,1 6.5,0.625 1,1 1,-1 1,1 1,-1 1,1 5.5,0.375 3.5,1.625 3.5,1.375 1.75,0.875 -0.25,1.75 -0.75,1.75 -2.75,-0.5 -7.5,0.875 -8.5,1.625 -33.5,0.25 -1,-1 -1,1 -1.5,-0.75 -13,-0.5 -1.5,-0.75 -1,1 -1,-1 h -4 l -1,-1 -1,1 -1,-1 -1,1 -3.5,-0.625 -6,-0.75 -2.5,-0.625 -1,1 -1,-1 h -17 l -1,-1 -1,1 h -2 l -1,-1 -1,1 -1,-1 L 103,569.5 89,568.375 67.5,568 l -1,-1 -1,1 h -4 l -1,-1 -1,1 -1,-1 h -1 l -1,1 -1,-1 -1,1 -1,-1 -1,1 h -3 l -1,-1 -1,1 -1,-1 h -43 l -1,1 -1,-1 -3.5,0.25 -1.5,0.75 -1,-1 -1,1 -1,-1 -1,1 h -31 l -1,1 -1,-1 -1,1 h -17 -0.5 l 0.5,1 1.25,0.25 0.25,1.25 1.5,1.5 1,-1 1,1 2.5,0.375 2,0.125 1.75,-0.25 0.5,1.625 6.75,0.75 11,0.75 6.5,1.375 4.5,1.875 5,0.75 6,2.25 4,0.625 2,1.5 4,0.625 L 5.5,586 8,588.5 6.5,590 -7,590.375 -18.5,591 l -1,1 -1,-1 -1,1 h -4 l -1,-1 -1,1 h -12 l -1,-1 -1,1 -1,-1 -10.5,-0.25 -4,-1.375 -5.5,-1 -2,-1.375 -1,1 -1,-1 -1.25,-0.25 -0.5,-1.5 -2.25,-0.25 -7.5,-7.5 -0.625,-1.5 -1,-3 -0.125,-5 0.25,-2 -1.125,-2 -0.375,-2.5 -1,-1 1,-1 0.625,-5 1.625,-2.25 2.25,-1.25 2,-1 2,-2 1,1 1.5,-0.5 2,-1.125 2.5,-0.375 2,-2 1,1 1,-1 h 2 l 2,-2 1,1 1,-1 2.5,-0.625 4,-0.75 6,-2.25 4,-0.625 1.75,-1 0.25,-1.25 0.5,-0.5 1,1 1.5,-0.5 2.5,-1.75 3.25,-1 1,-2 3.25,-1.375 3.5,-0.375 h 0.5 l -0.5,-1 h -2 -0.5 l 0.5,-1 3.5,-0.375 3,-0.625 0.5,1 0.5,-1 m -2.5,2 0.5,-1 h -0.5 -1 l -0.5,1 h 0.5 1 m 1.5,1 v -1 h -1 v 1 h 1 m -10,3 v -1 h -1 v 1 h 1 m -4,20 v -1 h -1 v 1 h 1 m -40,31 v -1 h -1 v 1 h 1 m 261,-21 v -1 h -1 v 1 h 1 m 2.5,0 0.5,-1 h -0.5 -1 l -0.5,1 h 0.5 1"
         id="path18" />
    </g>
  </g>
</svg>
