<?xml version="1.0" encoding="UTF-8" standalone="no"?>
<!-- Created with Inkscape (http://www.inkscape.org/) -->

<svg
   width="70.412239mm"
   height="17.4625mm"
   viewBox="0 0 70.412239 17.4625"
   version="1.1"
   id="svg1"
   xmlns="http://www.w3.org/2000/svg"
   xmlns:svg="http://www.w3.org/2000/svg">
  <defs
     id="defs1" />
  <g
     id="layer1"
     transform="translate(-1.149728,-0.92203444)">
    <g
       id="g9"
       transform="matrix(0.26458333,0,0,0.26458333,13.783582,-175.81963)">
      <path
         fill="#000000"
         fill-rule="evenodd"
         d="m 83,678 v -1 h -1 v 1 h 1 m -94,11 h 1.5 l 1,-1 1,1 1,-1 1.5,-0.5 2,-1 2,-1.125 3,-1 4,-0.75 3,-1 2,-1.25 3,-1 4,-1 6,-0.75 4,-1.25 5,-1 10.5,-0.375 2,-2 1,1 1.5,-0.75 11,-0.75 11,-0.875 6.5,-0.625 1,1 1,-1 1,1 1,-1 1.5,0.5 h 2 l 1.5,-0.5 1,1 1,-1 1,1 h 1 l 1,-1 1,1 1,-1 1.5,0.75 6.5,0.25 1,1 1,-1 h 1 l 1,1 1,-1 h 3 l 1,1 1,-1 2,1.375 10.5,1 6,1.25 9,0.75 5,1.25 8,0.75 4,0.375 1.75,-0.5 0.25,1.25 0.5,0.5 1,-1 h 1 l 1,1 1,-1 0.5,0.5 0.25,1.25 1.25,0.25 1,-1 1,1 1,-1 1,1 3.5,0.625 5,0.75 4,1.125 4,0.875 3,1.125 3,0.875 2,1.25 6,1.75 4,2.25 3.5,1.125 2,1.25 7.5,7.5 0.5,1.5 1.75,2.5 1.125,3.5 -0.125,2 -0.5,4 -0.75,1.5 v 0.5 l -1,-0.5 v -1 -0.5 l -1,0.5 v 1 0.5 l -1,-0.5 -0.625,-3.75 -2.375,-1.25 -1.5,-0.5 -5,-5 -1.5,-0.5 -5,-3 -2,-1.125 -2.75,-0.625 -0.5,-1.5 -2.75,-0.625 -2,-1.375 -4.5,-1.25 -4.5,-1.375 -6,-2.25 -10,-1.75 -3,-1.25 -5,-1 -6,-0.75 -4,-1 -2.5,-0.625 -1,-1 -1,1 h -2 l -2,-2 -1,1 h -3 l -1,-1 -1,1 -1,-1 h -2 l -1,-1 -1,1 -4.5,-0.625 -9.5,-0.375 -1,-1 -1,1 -1,-1 h -2 l -1,1 -1,-1 h -35 l -1,1 -1,-1 -1.5,0.625 -2.5,0.375 -1,1 -1,-1 -2.5,0.5 -3,0.875 -1.5,0.625 -1,-1 -1,1 -2.5,0.625 -4,1 -4.5,0.375 -1,1 -1,-1 -1,1 -4.5,0.375 -3,1.25 -10,1.75 -4.5,1.375 -3.5,1.625 -2,1.25 L 8.5,697 7,698.5 8,699.5 6.5,701 6,700.5 v -1 L 5.5,699 4,700.5 v 1 l -1.5,1.5 -1,-1 h -1 l -0.5,0.5 1,1 -2.5,2.5 -2,1 -2.5,1.5 -1.5,0.5 -4.5,4.5 0.25,1.25 1.75,-0.375 3,0.375 h 8 l 3,-0.25 3,1.125 4,0.75 3,1.125 2.75,0.75 0.5,1.5 1.75,1 3.75,0.5 v 3.5 l -3.25,1 -3,2.25 -2.5,1.5 -1.5,0.5 -0.5,0.5 1,1 -0.5,0.5 h -7 l -0.5,0.5 1,1 -0.5,0.5 h -5 l -1,-1 -1,1 -1,-1 -4.5,-0.25 -2,-0.125 -2.5,0.375 -1,-1 -1,1 -1,-1 -8.5,-0.375 -7,-1 -5,-1 -3,-1 -1.5,-0.625 -5.5,-5.5 -1.25,-2 -1.5,-3.5 v -12 l 1.375,-2 0.75,-3 1.625,-2.5 1.5,-2.5 1.75,-2.5 0.75,-3 5,-5 -1,-1 0.625,-1.5 0.75,-3 0.125,-2 -0.5,-1.5 0.5,-0.5 1,1 1.5,-2 h 0.5 l 0.5,-0.5 V 673 h 0.5 l 0.5,-0.5 V 672 l 1,-0.5 0.25,-2.25 1.25,-0.25 1,1 1,-1 h 1 l 1,-1 0.5,0.5 0.25,1.25 2.25,0.25 1,-1 2,2 1.25,0.25 0.5,2.5 1.25,0.25 0.5,0.5 -1,1 1,1 v 8 l -2,2 1,1 -0.25,1.25 -2.5,0.5 v 1.5 l 1.75,-0.375 4,-1.375 0.5,1 0.5,-1 m -7,3 v -1 h -1 v 1 h 1 m 17,12 v -1 h -1 v 1 h 1 m 3,29 v -1 H 1 v 1 h 1"
         id="path9" />
    </g>
  </g>
</svg>
