<?xml version="1.0" encoding="UTF-8" standalone="no"?>
<svg
   version="1.1"
   x="0px"
   y="0px"
   viewBox="0 0 92.135429 92.135429"
   enable-background="new 0 0 100 100"
   xml:space="preserve"
   id="svg2"
   sodipodi:docname="donate.svg"
   width="92.135429"
   height="92.135429"
   inkscape:version="1.3.1 (9b9bdc1480, 2023-11-25, custom)"
   xmlns:inkscape="http://www.inkscape.org/namespaces/inkscape"
   xmlns:sodipodi="http://sodipodi.sourceforge.net/DTD/sodipodi-0.dtd"
   xmlns="http://www.w3.org/2000/svg"
   xmlns:svg="http://www.w3.org/2000/svg"><defs
     id="defs2" /><sodipodi:namedview
     id="namedview2"
     pagecolor="#ffffff"
     bordercolor="#666666"
     borderopacity="1.0"
     inkscape:showpageshadow="2"
     inkscape:pageopacity="0.0"
     inkscape:pagecheckerboard="0"
     inkscape:deskcolor="#d1d1d1"
     showgrid="false"
     inkscape:zoom="7.152"
     inkscape:cx="46.14094"
     inkscape:cy="58.585011"
     inkscape:window-width="1920"
     inkscape:window-height="1136"
     inkscape:window-x="0"
     inkscape:window-y="0"
     inkscape:window-maximized="1"
     inkscape:current-layer="svg2" /><path
     d="m 46.065716,1.0677165 c -24.822,0 -44.9979995,20.1779995 -44.9979995,44.9999995 0,24.824 20.1759995,45 44.9979995,45 24.826,0 45.002,-20.176 45.002,-45 0,-24.822 -20.176,-44.9999995 -45.002,-44.9999995 z m 3.71,70.2749995 v 8.414 h -8.083 v -7.845 c -5.549,-0.241 -10.928,-1.726 -14.053,-3.56 l 2.502,-9.644 c 3.467,1.89 8.32,3.633 13.694,3.633 4.7,0 7.927,-1.821 7.927,-5.13 0,-3.137 -2.649,-5.109 -8.75,-7.18 -8.823,-2.971 -14.871,-7.102 -14.871,-15.105 0,-7.272 5.137,-12.976 13.972,-14.704 v -7.847 h 8.079 v 7.271 c 5.525,0.249 9.272,1.401 11.973,2.71 l -2.371,9.346 c -2.178,-0.913 -5.974,-2.813 -11.926,-2.813 -5.364,0 -7.087,2.31 -7.087,4.634 0,2.71 2.903,4.448 9.907,7.085 9.815,3.47 13.802,8.026 13.802,15.46 0,7.342 -5.225,13.613 -14.715,15.275 z"
     id="path1"
     style="fill:#ffffff;fill-opacity:1;stroke:#000000;stroke-width:2.13543;stroke-dasharray:none;stroke-opacity:1" /><path
     style="fill:#000000;fill-opacity:1;stroke:#000000;stroke-width:0.351424;stroke-dasharray:none;stroke-opacity:1"
     d="m 41.789193,75.786824 v -3.963778 l -1.368183,-0.08335 c -2.592796,-0.15796 -5.967173,-0.810819 -8.559111,-1.655979 -1.606376,-0.523796 -4.053359,-1.641891 -4.058594,-1.854487 -0.0061,-0.24581 2.278622,-9.091008 2.378771,-9.209493 0.04987,-0.059 0.684175,0.169226 1.409574,0.507164 4.220671,1.966263 7.824094,2.799692 12.085126,2.795151 2.11836,-0.0023 2.686199,-0.04918 3.586984,-0.296373 2.098493,-0.575874 3.574475,-1.635601 4.190374,-3.008609 0.474945,-1.058782 0.459296,-2.670401 -0.03633,-3.741525 -1.034424,-2.23555 -3.018125,-3.422219 -9.698522,-5.801751 -6.776543,-2.413778 -11.065295,-5.754532 -12.644485,-9.849509 -0.912735,-2.3668 -1.08963,-5.671335 -0.437982,-8.181849 0.367845,-1.417147 1.362785,-3.492157 2.245147,-4.682399 2.174983,-2.93389 5.939443,-5.223833 10.243081,-6.230927 l 1.083613,-0.253576 V 16.38611 12.496687 h 3.984899 3.984899 v 3.635347 3.635346 h 0.634705 c 2.776798,0 7.826969,1.093669 10.386871,2.249389 0.69525,0.313885 0.869119,0.452556 0.812443,0.647967 -0.03966,0.13674 -0.557451,2.167661 -1.150645,4.513159 -0.593195,2.345498 -1.096394,4.28679 -1.118221,4.313982 -0.02183,0.02719 -0.845878,-0.267718 -1.831222,-0.655356 -3.491791,-1.373685 -5.654869,-1.833585 -9.132141,-1.941618 -3.503076,-0.108835 -5.3535,0.337505 -6.755017,1.629379 -0.83155,0.766496 -1.26199,1.766957 -1.267841,2.946815 -0.0059,1.185098 0.38408,1.999201 1.404223,2.931555 1.439688,1.315792 3.438831,2.319568 8.512091,4.273941 1.534802,0.591253 3.482663,1.4114 4.32858,1.822549 5.128112,2.492467 8.208973,5.933245 9.071699,10.131489 0.807979,3.931831 0.164184,7.814437 -1.828468,11.027156 -0.831623,1.340813 -3.124255,3.655202 -4.513623,4.556459 -1.952122,1.266303 -4.475523,2.303348 -6.842076,2.811896 l -1.130821,0.243 v 4.24073 4.24073 h -3.984899 -3.984899 z"
     id="path3" /></svg>
