<?xml version="1.0" encoding="UTF-8" standalone="no"?>
<svg
   viewBox="0 0 13.780253 15.345838"
   version="1.1"
   x="0px"
   y="0px"
   id="svg2"
   sodipodi:docname="noun-package-5679564.svg"
   width="13.780252"
   height="15.345839"
   inkscape:version="1.3.1 (9b9bdc1480, 2023-11-25, custom)"
   xmlns:inkscape="http://www.inkscape.org/namespaces/inkscape"
   xmlns:sodipodi="http://sodipodi.sourceforge.net/DTD/sodipodi-0.dtd"
   xmlns="http://www.w3.org/2000/svg"
   xmlns:svg="http://www.w3.org/2000/svg">
  <defs
     id="defs2" />
  <sodipodi:namedview
     id="namedview2"
     pagecolor="#ffffff"
     bordercolor="#666666"
     borderopacity="1.0"
     inkscape:showpageshadow="2"
     inkscape:pageopacity="0.0"
     inkscape:pagecheckerboard="0"
     inkscape:deskcolor="#d1d1d1"
     showgrid="false"
     inkscape:zoom="42.236218"
     inkscape:cx="8.1920214"
     inkscape:cy="10.251865"
     inkscape:window-width="1920"
     inkscape:window-height="1136"
     inkscape:window-x="0"
     inkscape:window-y="0"
     inkscape:window-maximized="1"
     inkscape:current-layer="svg2" />
  <g
     id="g1"
     transform="translate(-1.5765402,-0.79374762)">
    <path
       style="color:#000000;paint-order:fill markers stroke"
       d="m 8.4210102,0.7979317 a 0.2646255,0.2646255 0 0 0 -0.08786,0.032558 l -2.097664,1.2413383 -0.01809,-0.01085 -0.01912,0.03256 -4.490938,2.656837 a 0.2646255,0.2646255 0 0 0 -0.129198,0.228939 h -0.0016 v 6.976715 h 0.0036 a 0.26459904,0.26459904 0 0 0 0.127132,0.226356 l 6.62581,3.920397 a 0.2646255,0.2646255 0 0 0 0.26925,0 l 6.6237468,-3.920397 a 0.26459904,0.26459904 0 0 0 0.129714,-0.226356 h 10e-4 V 4.979314 h -0.0016 A 0.2646255,0.2646255 0 0 0 15.226149,4.75037 L 8.6024022,0.8304897 a 0.2646255,0.2646255 0 0 0 -0.181392,-0.032558 z m 0.04651,0.5674393 6.1038498,3.613938 -1.711621,1.012916 a 0.26459853,0.26459853 0 0 0 -0.01706,-0.01137 L 6.7553812,2.379321 Z M 6.2360032,2.686296 12.341404,6.298684 11.093349,7.037182 4.9889802,3.424794 Z M 4.4675362,3.732803 10.572937,7.345191 8.4675202,8.590664 2.3621192,4.979309 Z m -2.361747,1.70852 6.096098,3.606703 v 6.362247 L 2.1057892,11.80357 Z M 14.827181,5.44184 v 6.362247 l -6.0955818,3.60722 V 9.04906 L 10.803944,7.822708 v 2.539525 a 0.26459853,0.26459853 0 0 0 0.0021,0.02739 0.26459853,0.26459853 0 0 0 0,5.17e-4 0.26459853,0.26459853 0 0 0 0.0067,0.03721 0.26459853,0.26459853 0 0 0 0.01137,0.03566 0.26459853,0.26459853 0 0 0 0.0155,0.03204 0.26459853,0.26459853 0 0 0 0.001,0.0021 0.26459853,0.26459853 0 0 0 0.0016,0.0026 0.26459853,0.26459853 0 0 0 0.02015,0.02842 0.26459853,0.26459853 0 0 0 0.02584,0.02791 0.26459853,0.26459853 0 0 0 0.02945,0.02377 0.26459853,0.26459853 0 0 0 0.03101,0.01912 0.26459853,0.26459853 0 0 0 0.03618,0.01499 0.26459853,0.26459853 0 0 0 0.03669,0.0093 0.26459853,0.26459853 0 0 0 0.03049,0.0036 0.26459853,0.26459853 0 0 0 0.0098,5.17e-4 0.26459853,0.26459853 0 0 0 0.0078,5.17e-4 0.26459853,0.26459853 0 0 0 0.02326,-0.0016 0.26459853,0.26459853 0 0 0 0.0062,-5.17e-4 0.26459853,0.26459853 0 0 0 0.0036,-5.16e-4 0.26459853,0.26459853 0 0 0 0.03049,-0.0057 0.26459853,0.26459853 0 0 0 10e-4,0 0.26459853,0.26459853 0 0 0 0.0083,-0.0026 0.26459853,0.26459853 0 0 0 0.02377,-0.0083 0.26459853,0.26459853 0 0 0 0.0041,-10e-4 0.26459853,0.26459853 0 0 0 5.16e-4,-5.17e-4 0.26459853,0.26459853 0 0 0 0.0057,-0.0026 0.26459853,0.26459853 0 0 0 0.0078,-0.0036 0.26459853,0.26459853 0 0 0 0.01963,-0.01034 l 1.632035,-0.966921 a 0.26459853,0.26459853 0 0 0 0.0067,-0.0036 0.26459853,0.26459853 0 0 0 0.0062,-0.0041 0.26459853,0.26459853 0 0 0 0.0124,-0.0083 0.26459853,0.26459853 0 0 0 0.0026,-0.0016 0.26459853,0.26459853 0 0 0 0.0093,-0.0072 0.26459853,0.26459853 0 0 0 10e-4,-5.16e-4 0.26459853,0.26459853 0 0 0 0.01034,-0.0093 0.26459853,0.26459853 0 0 0 0.0083,-0.0078 0.26459853,0.26459853 0 0 0 0.0021,-0.0026 0.26459853,0.26459853 0 0 0 0.05116,-0.07235 0.26459853,0.26459853 0 0 0 0.0036,-0.0072 0.26459853,0.26459853 0 0 0 0.0026,-0.0062 0.26459853,0.26459853 0 0 0 0.0052,-0.01395 0.26459853,0.26459853 0 0 0 0.0083,-0.02791 0.26459853,0.26459853 0 0 0 0,-0.001 0.26459853,0.26459853 0 0 0 0.0062,-0.0739 V 6.539477 Z M 12.442697,6.852687 V 9.242341 L 11.333141,9.899185 V 7.509531 Z"
       fill="#000000"
       fill-rule="evenodd"
       stroke-width="1.00006"
       stroke-linecap="round"
       stroke-linejoin="round"
       id="path1" />
  </g>
  <text
     x="-0.2132996"
     y="31.75952"
     fill="#000000"
     font-size="5px"
     font-weight="bold"
     font-family="'Helvetica Neue', Helvetica, Arial-Unicode, Arial, Sans-serif"
     id="text1">Created by Alzam</text>
  <text
     x="-0.2132996"
     y="36.759518"
     fill="#000000"
     font-size="5px"
     font-weight="bold"
     font-family="'Helvetica Neue', Helvetica, Arial-Unicode, Arial, Sans-serif"
     id="text2">from the Noun Project</text>
</svg>
