<?xml version="1.0" encoding="UTF-8" standalone="no"?>
<svg
   version="1.1"
   viewBox="-5 -10 65.625 87.500496"
   id="svg6"
   sodipodi:docname="paper2.svg"
   width="65.625"
   height="87.500496"
   inkscape:version="1.3.1 (9b9bdc1480, 2023-11-25, custom)"
   xmlns:inkscape="http://www.inkscape.org/namespaces/inkscape"
   xmlns:sodipodi="http://sodipodi.sourceforge.net/DTD/sodipodi-0.dtd"
   xmlns="http://www.w3.org/2000/svg"
   xmlns:svg="http://www.w3.org/2000/svg">
  <defs
     id="defs6" />
  <sodipodi:namedview
     id="namedview6"
     pagecolor="#ffffff"
     bordercolor="#666666"
     borderopacity="1.0"
     inkscape:showpageshadow="2"
     inkscape:pageopacity="0.0"
     inkscape:pagecheckerboard="0"
     inkscape:deskcolor="#d1d1d1"
     showgrid="false"
     inkscape:zoom="6.6222222"
     inkscape:cx="32.84396"
     inkscape:cy="51.191275"
     inkscape:window-width="1920"
     inkscape:window-height="1136"
     inkscape:window-x="0"
     inkscape:window-y="0"
     inkscape:window-maximized="1"
     inkscape:current-layer="svg6" />
  <g
     id="g6"
     transform="translate(-22.1918,-16.249188)">
    <path
       d="M 82.684,24.383 C 82.56681,24.20331 82.45744,24.00409 82.309,23.84784 L 63.559,6.65984 C 63.2465,6.43718 62.90275,6.23796 62.5043,6.24968 h -43.75 c -0.86328,0 -1.5625,0.69922 -1.5625,1.5625 v 84.375 c 0,0.86328 0.69922,1.5625 1.5625,1.5625 h 62.5 c 0.86328,0 1.5625,-0.69922 1.5625,-1.5625 l -0.0039,-67.188 c 0,-0.21875 -0.04687,-0.42969 -0.12891,-0.61719 z M 64.063,11.367 77.235,23.441 H 64.063 Z M 20.313,90.625 V 9.375 H 60.938 V 25 c 0,0.86328 0.69922,1.5625 1.5625,1.5625 h 17.188 v 64.062 z"
       id="path1" />
    <path
       d="m 29.688,23.438 h 23.438 c 0.86328,0 1.5625,-0.69922 1.5625,-1.5625 0,-0.86328 -0.69922,-1.5625 -1.5625,-1.5625 H 29.688 c -2.0469,0.03125 -2.0586,3.0898 0,3.125 z"
       id="path2" />
    <path
       d="m 29.688,37.5 h 23.438 c 0.86328,0 1.5625,-0.69922 1.5625,-1.5625 0,-0.86328 -0.69922,-1.5625 -1.5625,-1.5625 H 29.688 c -2.0469,0.03125 -2.0586,3.0898 0,3.125 z"
       id="path3" />
    <path
       d="M 70.312,48.438 H 29.687 c -2.0391,0.03125 -2.0664,3.0898 0,3.125 h 40.625 c 2.0391,-0.03125 2.0664,-3.0898 0,-3.125 z"
       id="path4" />
    <path
       d="M 70.312,62.5 H 29.687 c -2.0391,0.03125 -2.0664,3.0898 0,3.125 h 40.625 c 2.0391,-0.03125 2.0664,-3.0898 0,-3.125 z"
       id="path5" />
    <path
       d="M 70.312,76.562 H 29.687 c -2.0391,0.03125 -2.0664,3.0898 0,3.125 h 40.625 c 2.0391,-0.03125 2.0664,-3.0898 0,-3.125 z"
       id="path6" />
  </g>
</svg>
